<?xml version="1.0" encoding="UTF-8" standalone="no"?>
<!DOCTYPE svg PUBLIC "-//W3C//DTD SVG 1.1//EN"
 "http://www.w3.org/Graphics/SVG/1.1/DTD/svg11.dtd">
<!-- Generated by graphviz version 2.28.0 (20121025.0401)
 -->
<!-- Title: G Pages: 1 -->
<svg width="950pt" height="415pt"
 viewBox="0.00 0.00 950.00 415.00" xmlns="http://www.w3.org/2000/svg" xmlns:xlink="http://www.w3.org/1999/xlink">
<g id="graph1" class="graph" transform="scale(1 1) rotate(0) translate(4 411)">
<title>G</title>
<polygon fill="white" stroke="white" points="-4,5 -4,-411 947,-411 947,5 -4,5"/>
<g id="graph2" class="cluster"><title>cluster_BCA</title>
<polyline fill="none" stroke="gray" points="432,-44 922,-44 "/>
<path fill="none" stroke="gray" d="M922,-44C928,-44 934,-50 934,-56"/>
<polyline fill="none" stroke="gray" points="934,-56 934,-387 "/>
<path fill="none" stroke="gray" d="M934,-387C934,-393 928,-399 922,-399"/>
<polyline fill="none" stroke="gray" points="922,-399 432,-399 "/>
<path fill="none" stroke="gray" d="M432,-399C426,-399 420,-393 420,-387"/>
<polyline fill="none" stroke="gray" points="420,-387 420,-56 "/>
<path fill="none" stroke="gray" d="M420,-56C420,-50 426,-44 432,-44"/>
<text text-anchor="middle" x="677" y="-384" font-family="Times,serif" font-size="11.00" fill="gray">BCA</text>
</g>
<g id="graph3" class="cluster"><title>cluster_BCA\LaravelInspect</title>
<polyline fill="none" stroke="gray" points="440,-52 914,-52 "/>
<path fill="none" stroke="gray" d="M914,-52C920,-52 926,-58 926,-64"/>
<polyline fill="none" stroke="gray" points="926,-64 926,-358 "/>
<path fill="none" stroke="gray" d="M926,-358C926,-364 920,-370 914,-370"/>
<polyline fill="none" stroke="gray" points="914,-370 440,-370 "/>
<path fill="none" stroke="gray" d="M440,-370C434,-370 428,-364 428,-358"/>
<polyline fill="none" stroke="gray" points="428,-358 428,-64 "/>
<path fill="none" stroke="gray" d="M428,-64C428,-58 434,-52 440,-52"/>
<text text-anchor="middle" x="677" y="-355" font-family="Times,serif" font-size="11.00" fill="gray">LaravelInspect</text>
</g>
<g id="graph4" class="cluster"><title>cluster_BCA\LaravelInspect\Commands</title>
<polyline fill="none" stroke="gray" points="448,-106 881,-106 "/>
<path fill="none" stroke="gray" d="M881,-106C887,-106 893,-112 893,-118"/>
<polyline fill="none" stroke="gray" points="893,-118 893,-329 "/>
<path fill="none" stroke="gray" d="M893,-329C893,-335 887,-341 881,-341"/>
<polyline fill="none" stroke="gray" points="881,-341 448,-341 "/>
<path fill="none" stroke="gray" d="M448,-341C442,-341 436,-335 436,-329"/>
<polyline fill="none" stroke="gray" points="436,-329 436,-118 "/>
<path fill="none" stroke="gray" d="M436,-118C436,-112 442,-106 448,-106"/>
<text text-anchor="middle" x="664.5" y="-326" font-family="Times,serif" font-size="11.00" fill="gray">Commands</text>
</g>
<!-- \\BCA\\LaravelInspect\\Commands\\Inspect -->
<g id="node4" class="node"><title>\\BCA\\LaravelInspect\\Commands\\Inspect</title>
<a xlink:href="Commands.Inspect.html" xlink:title="«abstract»&lt;br/&gt;Inspect" target="_parent">
<polygon fill="none" stroke="black" points="527.5,-231 444.5,-231 444.5,-195 527.5,-195 527.5,-231"/>
<text text-anchor="start" x="453" y="-214.5" font-family="Courier,monospace" font-size="11.00">«abstract»</text>
<text text-anchor="start" x="463" y="-203.5" font-family="Courier,monospace" font-size="11.00">Inspect</text>
</a>
</g>
<!-- \\Illuminate\\Console\\Command -->
<g id="node12" class="node"><title>\\Illuminate\\Console\\Command</title>
<ellipse fill="none" stroke="black" cx="131" cy="-213" rx="130.828" ry="18"/>
<text text-anchor="middle" x="131" y="-207.4" font-family="Times,serif" font-size="14.00" fill="gray">\Illuminate\Console\Command</text>
</g>
<!-- \\BCA\\LaravelInspect\\Commands\\Inspect&#45;&gt;\\Illuminate\\Console\\Command -->
<g id="edge6" class="edge"><title>\\BCA\\LaravelInspect\\Commands\\Inspect&#45;&gt;\\Illuminate\\Console\\Command</title>
<path fill="none" stroke="black" d="M444.162,-213C402.042,-213 333.969,-213 272.124,-213"/>
<polygon fill="none" stroke="black" points="271.859,-209.5 261.859,-213 271.859,-216.5 271.859,-209.5"/>
</g>
<!-- \\BCA\\LaravelInspect\\Commands\\InspectFixCommand -->
<g id="node5" class="node"><title>\\BCA\\LaravelInspect\\Commands\\InspectFixCommand</title>
<a xlink:href="Commands.InspectFixCommand.html" xlink:title="InspectFixCommand" target="_parent">
<polygon fill="none" stroke="black" points="878.218,-312 749.782,-312 749.782,-276 878.218,-276 878.218,-312"/>
<text text-anchor="middle" x="814" y="-289.6" font-family="Courier,monospace" font-size="11.00">InspectFixCommand</text>
</a>
</g>
<!-- \\BCA\\LaravelInspect\\Commands\\InspectFixCommand&#45;&gt;\\BCA\\LaravelInspect\\Commands\\Inspect -->
<g id="edge8" class="edge"><title>\\BCA\\LaravelInspect\\Commands\\InspectFixCommand&#45;&gt;\\BCA\\LaravelInspect\\Commands\\Inspect</title>
<path fill="none" stroke="black" d="M749.757,-278.286C687.923,-262.923 594.968,-239.826 537.794,-225.621"/>
<polygon fill="none" stroke="black" points="538.446,-222.176 527.898,-223.162 536.758,-228.97 538.446,-222.176"/>
</g>
<!-- \\BCA\\LaravelInspect\\Commands\\InspectLintCommand -->
<g id="node6" class="node"><title>\\BCA\\LaravelInspect\\Commands\\InspectLintCommand</title>
<a xlink:href="Commands.InspectLintCommand.html" xlink:title="InspectLintCommand" target="_parent">
<polygon fill="none" stroke="black" points="881.319,-258 746.681,-258 746.681,-222 881.319,-222 881.319,-258"/>
<text text-anchor="middle" x="814" y="-235.6" font-family="Courier,monospace" font-size="11.00">InspectLintCommand</text>
</a>
</g>
<!-- \\BCA\\LaravelInspect\\Commands\\InspectLintCommand&#45;&gt;\\BCA\\LaravelInspect\\Commands\\Inspect -->
<g id="edge10" class="edge"><title>\\BCA\\LaravelInspect\\Commands\\InspectLintCommand&#45;&gt;\\BCA\\LaravelInspect\\Commands\\Inspect</title>
<path fill="none" stroke="black" d="M746.636,-234.504C684.77,-229.38 593.835,-221.848 537.629,-217.193"/>
<polygon fill="none" stroke="black" points="537.807,-213.696 527.553,-216.359 537.23,-220.672 537.807,-213.696"/>
</g>
<!-- \\BCA\\LaravelInspect\\Commands\\InspectMessCommand -->
<g id="node7" class="node"><title>\\BCA\\LaravelInspect\\Commands\\InspectMessCommand</title>
<a xlink:href="Commands.InspectMessCommand.html" xlink:title="InspectMessCommand" target="_parent">
<polygon fill="none" stroke="black" points="881.319,-204 746.681,-204 746.681,-168 881.319,-168 881.319,-204"/>
<text text-anchor="middle" x="814" y="-181.6" font-family="Courier,monospace" font-size="11.00">InspectMessCommand</text>
</a>
</g>
<!-- \\BCA\\LaravelInspect\\Commands\\InspectMessCommand&#45;&gt;\\BCA\\LaravelInspect\\Commands\\Inspect -->
<g id="edge12" class="edge"><title>\\BCA\\LaravelInspect\\Commands\\InspectMessCommand&#45;&gt;\\BCA\\LaravelInspect\\Commands\\Inspect</title>
<path fill="none" stroke="black" d="M746.636,-191.496C684.77,-196.62 593.835,-204.152 537.629,-208.807"/>
<polygon fill="none" stroke="black" points="537.23,-205.328 527.553,-209.641 537.807,-212.304 537.23,-205.328"/>
</g>
<!-- \\BCA\\LaravelInspect\\Commands\\InspectSniffCommand -->
<g id="node8" class="node"><title>\\BCA\\LaravelInspect\\Commands\\InspectSniffCommand</title>
<a xlink:href="Commands.InspectSniffCommand.html" xlink:title="InspectSniffCommand" target="_parent">
<polygon fill="none" stroke="black" points="884.921,-150 743.079,-150 743.079,-114 884.921,-114 884.921,-150"/>
<text text-anchor="middle" x="814" y="-127.6" font-family="Courier,monospace" font-size="11.00">InspectSniffCommand</text>
</a>
</g>
<!-- \\BCA\\LaravelInspect\\Commands\\InspectSniffCommand&#45;&gt;\\BCA\\LaravelInspect\\Commands\\Inspect -->
<g id="edge14" class="edge"><title>\\BCA\\LaravelInspect\\Commands\\InspectSniffCommand&#45;&gt;\\BCA\\LaravelInspect\\Commands\\Inspect</title>
<path fill="none" stroke="black" d="M743.28,-148.636C732.059,-151.782 720.641,-155.268 710,-159 676.955,-170.589 671.64,-181.274 638,-191 605.331,-200.445 567.459,-205.95 537.815,-209.091"/>
<polygon fill="none" stroke="black" points="537.296,-205.625 527.695,-210.106 537.994,-212.59 537.296,-205.625"/>
</g>
<!-- \\BCA\\LaravelInspect\\LaravelInspectServiceProvider -->
<g id="node9" class="node"><title>\\BCA\\LaravelInspect\\LaravelInspectServiceProvider</title>
<a xlink:href="LaravelInspectServiceProvider.html" xlink:title="LaravelInspectServiceProvider" target="_parent">
<polygon fill="none" stroke="black" points="917.932,-96 710.068,-96 710.068,-60 917.932,-60 917.932,-96"/>
<text text-anchor="middle" x="814" y="-73.6" font-family="Courier,monospace" font-size="11.00">LaravelInspectServiceProvider</text>
</a>
</g>
<!-- \\Illuminate\\Support\\ServiceProvider -->
<g id="node18" class="node"><title>\\Illuminate\\Support\\ServiceProvider</title>
<ellipse fill="none" stroke="black" cx="486" cy="-18" rx="151.643" ry="18"/>
<text text-anchor="middle" x="486" y="-12.4" font-family="Times,serif" font-size="14.00" fill="gray">\Illuminate\Support\ServiceProvider</text>
</g>
<!-- \\BCA\\LaravelInspect\\LaravelInspectServiceProvider&#45;&gt;\\Illuminate\\Support\\ServiceProvider -->
<g id="edge16" class="edge"><title>\\BCA\\LaravelInspect\\LaravelInspectServiceProvider&#45;&gt;\\Illuminate\\Support\\ServiceProvider</title>
<path fill="none" stroke="black" d="M715.189,-59.998C672.042,-52.0569 621.599,-42.7728 579.128,-34.956"/>
<polygon fill="none" stroke="black" points="579.543,-31.4737 569.074,-33.1057 578.276,-38.3581 579.543,-31.4737"/>
</g>
</g>
</svg>
